<mxfile host="app.diagrams.net" modified="2023-11-28T15:37:04.490Z" agent="Mozilla/5.0 (Windows NT 10.0; Win64; x64) AppleWebKit/537.36 (KHTML, like Gecko) Chrome/119.0.0.0 Safari/537.36" etag="VAbsDw4RhwFb-yiaJJCn" version="22.1.4" type="github">
  <diagram name="Page-1" id="wNEtSFz7i4EvFAsGNa6M">
    <mxGraphModel dx="995" dy="607" grid="1" gridSize="10" guides="1" tooltips="1" connect="1" arrows="1" fold="1" page="1" pageScale="1" pageWidth="850" pageHeight="1100" math="0" shadow="0">
      <root>
        <mxCell id="0" />
        <mxCell id="1" parent="0" />
        <mxCell id="QTaHCRTgpDroU6HZKVSe-1" value="" style="swimlane;startSize=0;fontFamily=Times New Roman;" vertex="1" parent="1">
          <mxGeometry x="110" y="220" width="40" height="40" as="geometry" />
        </mxCell>
        <mxCell id="QTaHCRTgpDroU6HZKVSe-2" value="&lt;font style=&quot;font-size: 15px;&quot;&gt;A&lt;/font&gt;" style="text;html=1;align=center;verticalAlign=middle;resizable=0;points=[];autosize=1;strokeColor=none;fillColor=none;fontFamily=Times New Roman;" vertex="1" parent="1">
          <mxGeometry x="115" y="228" width="30" height="30" as="geometry" />
        </mxCell>
        <mxCell id="QTaHCRTgpDroU6HZKVSe-3" value="&lt;font style=&quot;font-size: 15px;&quot;&gt;B&lt;/font&gt;" style="whiteSpace=wrap;html=1;aspect=fixed;fontFamily=Times New Roman;" vertex="1" parent="1">
          <mxGeometry x="110" y="280" width="40" height="40" as="geometry" />
        </mxCell>
        <mxCell id="QTaHCRTgpDroU6HZKVSe-11" style="edgeStyle=orthogonalEdgeStyle;rounded=0;orthogonalLoop=1;jettySize=auto;html=1;exitX=1;exitY=0.5;exitDx=0;exitDy=0;entryX=0;entryY=0.5;entryDx=0;entryDy=0;fillColor=#0050ef;strokeColor=#001DBC;fontFamily=Times New Roman;" edge="1" parent="1" source="QTaHCRTgpDroU6HZKVSe-5" target="QTaHCRTgpDroU6HZKVSe-10">
          <mxGeometry relative="1" as="geometry" />
        </mxCell>
        <mxCell id="QTaHCRTgpDroU6HZKVSe-5" value="" style="swimlane;startSize=0;fontFamily=Times New Roman;" vertex="1" parent="1">
          <mxGeometry x="100" y="210" width="60" height="120" as="geometry" />
        </mxCell>
        <mxCell id="QTaHCRTgpDroU6HZKVSe-10" value="&lt;font style=&quot;font-size: 15px;&quot;&gt;C&lt;/font&gt;" style="whiteSpace=wrap;html=1;aspect=fixed;fontFamily=Times New Roman;" vertex="1" parent="1">
          <mxGeometry x="200" y="250" width="40" height="40" as="geometry" />
        </mxCell>
        <mxCell id="QTaHCRTgpDroU6HZKVSe-14" value="" style="endArrow=classic;html=1;rounded=0;exitX=0;exitY=0.75;exitDx=0;exitDy=0;entryX=1;entryY=0.5;entryDx=0;entryDy=0;fillColor=#0050ef;strokeColor=#001DBC;fontFamily=Times New Roman;" edge="1" parent="1" source="QTaHCRTgpDroU6HZKVSe-10" target="QTaHCRTgpDroU6HZKVSe-3">
          <mxGeometry width="50" height="50" relative="1" as="geometry">
            <mxPoint x="170" y="380" as="sourcePoint" />
            <mxPoint x="220" y="330" as="targetPoint" />
          </mxGeometry>
        </mxCell>
        <mxCell id="QTaHCRTgpDroU6HZKVSe-20" value="" style="shape=table;startSize=0;container=1;collapsible=0;childLayout=tableLayout;fontFamily=Times New Roman;" vertex="1" parent="1">
          <mxGeometry x="90" y="130" width="180" height="40" as="geometry" />
        </mxCell>
        <mxCell id="QTaHCRTgpDroU6HZKVSe-21" value="" style="shape=tableRow;horizontal=0;startSize=0;swimlaneHead=0;swimlaneBody=0;strokeColor=inherit;top=0;left=0;bottom=0;right=0;collapsible=0;dropTarget=0;fillColor=none;points=[[0,0.5],[1,0.5]];portConstraint=eastwest;fontFamily=Times New Roman;" vertex="1" parent="QTaHCRTgpDroU6HZKVSe-20">
          <mxGeometry width="180" height="40" as="geometry" />
        </mxCell>
        <mxCell id="QTaHCRTgpDroU6HZKVSe-22" value="&lt;u&gt;&lt;font style=&quot;font-size: 15px;&quot;&gt;A&lt;/font&gt;&lt;/u&gt;" style="shape=partialRectangle;html=1;whiteSpace=wrap;connectable=0;strokeColor=inherit;overflow=hidden;fillColor=none;top=0;left=0;bottom=0;right=0;pointerEvents=1;fontFamily=Times New Roman;" vertex="1" parent="QTaHCRTgpDroU6HZKVSe-21">
          <mxGeometry width="60" height="40" as="geometry">
            <mxRectangle width="60" height="40" as="alternateBounds" />
          </mxGeometry>
        </mxCell>
        <mxCell id="QTaHCRTgpDroU6HZKVSe-23" value="&lt;u&gt;&lt;font style=&quot;font-size: 15px;&quot;&gt;B&lt;/font&gt;&lt;/u&gt;" style="shape=partialRectangle;html=1;whiteSpace=wrap;connectable=0;strokeColor=inherit;overflow=hidden;fillColor=none;top=0;left=0;bottom=0;right=0;pointerEvents=1;fontFamily=Times New Roman;" vertex="1" parent="QTaHCRTgpDroU6HZKVSe-21">
          <mxGeometry x="60" width="60" height="40" as="geometry">
            <mxRectangle width="60" height="40" as="alternateBounds" />
          </mxGeometry>
        </mxCell>
        <mxCell id="QTaHCRTgpDroU6HZKVSe-24" value="&lt;font style=&quot;font-size: 15px;&quot;&gt;C&lt;/font&gt;" style="shape=partialRectangle;html=1;whiteSpace=wrap;connectable=0;strokeColor=inherit;overflow=hidden;fillColor=none;top=0;left=0;bottom=0;right=0;pointerEvents=1;fontFamily=Times New Roman;" vertex="1" parent="QTaHCRTgpDroU6HZKVSe-21">
          <mxGeometry x="120" width="60" height="40" as="geometry">
            <mxRectangle width="60" height="40" as="alternateBounds" />
          </mxGeometry>
        </mxCell>
        <mxCell id="QTaHCRTgpDroU6HZKVSe-25" value="" style="shape=table;startSize=0;container=1;collapsible=0;childLayout=tableLayout;fontFamily=Times New Roman;" vertex="1" parent="1">
          <mxGeometry x="310" y="130" width="180" height="40" as="geometry" />
        </mxCell>
        <mxCell id="QTaHCRTgpDroU6HZKVSe-26" value="" style="shape=tableRow;horizontal=0;startSize=0;swimlaneHead=0;swimlaneBody=0;strokeColor=inherit;top=0;left=0;bottom=0;right=0;collapsible=0;dropTarget=0;fillColor=none;points=[[0,0.5],[1,0.5]];portConstraint=eastwest;fontFamily=Times New Roman;" vertex="1" parent="QTaHCRTgpDroU6HZKVSe-25">
          <mxGeometry width="180" height="40" as="geometry" />
        </mxCell>
        <mxCell id="QTaHCRTgpDroU6HZKVSe-27" value="&lt;u&gt;&lt;font style=&quot;font-size: 15px;&quot;&gt;A&lt;/font&gt;&lt;/u&gt;" style="shape=partialRectangle;html=1;whiteSpace=wrap;connectable=0;strokeColor=inherit;overflow=hidden;fillColor=none;top=0;left=0;bottom=0;right=0;pointerEvents=1;fontFamily=Times New Roman;" vertex="1" parent="QTaHCRTgpDroU6HZKVSe-26">
          <mxGeometry width="60" height="40" as="geometry">
            <mxRectangle width="60" height="40" as="alternateBounds" />
          </mxGeometry>
        </mxCell>
        <mxCell id="QTaHCRTgpDroU6HZKVSe-28" value="&lt;font style=&quot;font-size: 15px;&quot;&gt;D&lt;/font&gt;" style="shape=partialRectangle;html=1;whiteSpace=wrap;connectable=0;strokeColor=inherit;overflow=hidden;fillColor=none;top=0;left=0;bottom=0;right=0;pointerEvents=1;fontFamily=Times New Roman;" vertex="1" parent="QTaHCRTgpDroU6HZKVSe-26">
          <mxGeometry x="60" width="60" height="40" as="geometry">
            <mxRectangle width="60" height="40" as="alternateBounds" />
          </mxGeometry>
        </mxCell>
        <mxCell id="QTaHCRTgpDroU6HZKVSe-29" value="&lt;font style=&quot;font-size: 15px;&quot;&gt;E&lt;/font&gt;" style="shape=partialRectangle;html=1;whiteSpace=wrap;connectable=0;strokeColor=inherit;overflow=hidden;fillColor=none;top=0;left=0;bottom=0;right=0;pointerEvents=1;fontFamily=Times New Roman;" vertex="1" parent="QTaHCRTgpDroU6HZKVSe-26">
          <mxGeometry x="120" width="60" height="40" as="geometry">
            <mxRectangle width="60" height="40" as="alternateBounds" />
          </mxGeometry>
        </mxCell>
        <mxCell id="QTaHCRTgpDroU6HZKVSe-31" style="edgeStyle=orthogonalEdgeStyle;rounded=0;orthogonalLoop=1;jettySize=auto;html=1;entryX=0.15;entryY=1.1;entryDx=0;entryDy=0;entryPerimeter=0;exitX=0.144;exitY=0.975;exitDx=0;exitDy=0;exitPerimeter=0;fontFamily=Times New Roman;" edge="1" parent="1" source="QTaHCRTgpDroU6HZKVSe-21" target="QTaHCRTgpDroU6HZKVSe-26">
          <mxGeometry relative="1" as="geometry">
            <Array as="points">
              <mxPoint x="116" y="190" />
              <mxPoint x="337" y="190" />
            </Array>
          </mxGeometry>
        </mxCell>
        <mxCell id="QTaHCRTgpDroU6HZKVSe-34" value="" style="swimlane;startSize=0;fontFamily=Times New Roman;" vertex="1" parent="1">
          <mxGeometry x="440" y="210" width="40" height="40" as="geometry" />
        </mxCell>
        <mxCell id="QTaHCRTgpDroU6HZKVSe-35" value="&lt;font style=&quot;font-size: 15px;&quot;&gt;A&lt;/font&gt;" style="text;html=1;align=center;verticalAlign=middle;resizable=0;points=[];autosize=1;strokeColor=none;fillColor=none;fontFamily=Times New Roman;" vertex="1" parent="QTaHCRTgpDroU6HZKVSe-34">
          <mxGeometry x="5" y="5" width="30" height="30" as="geometry" />
        </mxCell>
        <mxCell id="QTaHCRTgpDroU6HZKVSe-41" value="" style="swimlane;startSize=0;fontFamily=Times New Roman;" vertex="1" parent="1">
          <mxGeometry x="340" y="210" width="40" height="40" as="geometry" />
        </mxCell>
        <mxCell id="QTaHCRTgpDroU6HZKVSe-42" value="&lt;font style=&quot;font-size: 15px;&quot;&gt;D&lt;/font&gt;" style="text;html=1;align=center;verticalAlign=middle;resizable=0;points=[];autosize=1;strokeColor=none;fillColor=none;fontFamily=Times New Roman;" vertex="1" parent="QTaHCRTgpDroU6HZKVSe-41">
          <mxGeometry x="5" y="5" width="30" height="30" as="geometry" />
        </mxCell>
        <mxCell id="QTaHCRTgpDroU6HZKVSe-43" value="" style="swimlane;startSize=0;fontFamily=Times New Roman;" vertex="1" parent="1">
          <mxGeometry x="340" y="280" width="40" height="40" as="geometry" />
        </mxCell>
        <mxCell id="QTaHCRTgpDroU6HZKVSe-44" value="&lt;font style=&quot;font-size: 15px;&quot;&gt;E&lt;/font&gt;" style="text;html=1;align=center;verticalAlign=middle;resizable=0;points=[];autosize=1;strokeColor=none;fillColor=none;fontFamily=Times New Roman;" vertex="1" parent="QTaHCRTgpDroU6HZKVSe-43">
          <mxGeometry x="5" y="5" width="30" height="30" as="geometry" />
        </mxCell>
        <mxCell id="QTaHCRTgpDroU6HZKVSe-46" style="edgeStyle=orthogonalEdgeStyle;rounded=0;orthogonalLoop=1;jettySize=auto;html=1;entryX=1;entryY=0.5;entryDx=0;entryDy=0;endArrow=doubleBlock;endFill=1;fillColor=#0050ef;strokeColor=#001DBC;fontFamily=Times New Roman;" edge="1" parent="1" target="QTaHCRTgpDroU6HZKVSe-41">
          <mxGeometry relative="1" as="geometry">
            <mxPoint x="440" y="230" as="sourcePoint" />
          </mxGeometry>
        </mxCell>
        <mxCell id="QTaHCRTgpDroU6HZKVSe-48" value="" style="endArrow=doubleBlock;html=1;rounded=0;entryX=1;entryY=0.5;entryDx=0;entryDy=0;endFill=1;fillColor=#0050ef;strokeColor=#001DBC;fontFamily=Times New Roman;" edge="1" parent="1" target="QTaHCRTgpDroU6HZKVSe-43">
          <mxGeometry width="50" height="50" relative="1" as="geometry">
            <mxPoint x="440" y="230" as="sourcePoint" />
            <mxPoint x="440" y="260" as="targetPoint" />
          </mxGeometry>
        </mxCell>
        <mxCell id="QTaHCRTgpDroU6HZKVSe-49" value="" style="shape=table;startSize=0;container=1;collapsible=0;childLayout=tableLayout;fontFamily=Times New Roman;" vertex="1" parent="1">
          <mxGeometry x="520" y="130" width="240" height="40" as="geometry" />
        </mxCell>
        <mxCell id="QTaHCRTgpDroU6HZKVSe-50" value="" style="shape=tableRow;horizontal=0;startSize=0;swimlaneHead=0;swimlaneBody=0;strokeColor=inherit;top=0;left=0;bottom=0;right=0;collapsible=0;dropTarget=0;fillColor=none;points=[[0,0.5],[1,0.5]];portConstraint=eastwest;fontFamily=Times New Roman;" vertex="1" parent="QTaHCRTgpDroU6HZKVSe-49">
          <mxGeometry width="240" height="40" as="geometry" />
        </mxCell>
        <mxCell id="QTaHCRTgpDroU6HZKVSe-51" value="&lt;font style=&quot;font-size: 15px;&quot;&gt;&lt;u&gt;B&lt;/u&gt;&lt;/font&gt;" style="shape=partialRectangle;html=1;whiteSpace=wrap;connectable=0;strokeColor=inherit;overflow=hidden;fillColor=none;top=0;left=0;bottom=0;right=0;pointerEvents=1;fontFamily=Times New Roman;" vertex="1" parent="QTaHCRTgpDroU6HZKVSe-50">
          <mxGeometry width="60" height="40" as="geometry">
            <mxRectangle width="60" height="40" as="alternateBounds" />
          </mxGeometry>
        </mxCell>
        <mxCell id="QTaHCRTgpDroU6HZKVSe-52" value="&lt;font style=&quot;font-size: 15px;&quot;&gt;F&lt;/font&gt;" style="shape=partialRectangle;html=1;whiteSpace=wrap;connectable=0;strokeColor=inherit;overflow=hidden;fillColor=none;top=0;left=0;bottom=0;right=0;pointerEvents=1;fontFamily=Times New Roman;" vertex="1" parent="QTaHCRTgpDroU6HZKVSe-50">
          <mxGeometry x="60" width="60" height="40" as="geometry">
            <mxRectangle width="60" height="40" as="alternateBounds" />
          </mxGeometry>
        </mxCell>
        <mxCell id="QTaHCRTgpDroU6HZKVSe-53" value="&lt;font style=&quot;font-size: 15px;&quot;&gt;G&lt;/font&gt;" style="shape=partialRectangle;html=1;whiteSpace=wrap;connectable=0;strokeColor=inherit;overflow=hidden;fillColor=none;top=0;left=0;bottom=0;right=0;pointerEvents=1;fontFamily=Times New Roman;" vertex="1" parent="QTaHCRTgpDroU6HZKVSe-50">
          <mxGeometry x="120" width="60" height="40" as="geometry">
            <mxRectangle width="60" height="40" as="alternateBounds" />
          </mxGeometry>
        </mxCell>
        <mxCell id="QTaHCRTgpDroU6HZKVSe-54" value="&lt;font style=&quot;font-size: 15px;&quot;&gt;H&lt;/font&gt;" style="shape=partialRectangle;html=1;whiteSpace=wrap;connectable=0;strokeColor=inherit;overflow=hidden;fillColor=none;top=0;left=0;bottom=0;right=0;pointerEvents=1;fontFamily=Times New Roman;" vertex="1" parent="QTaHCRTgpDroU6HZKVSe-50">
          <mxGeometry x="180" width="60" height="40" as="geometry">
            <mxRectangle width="60" height="40" as="alternateBounds" />
          </mxGeometry>
        </mxCell>
        <mxCell id="QTaHCRTgpDroU6HZKVSe-57" style="edgeStyle=orthogonalEdgeStyle;rounded=0;orthogonalLoop=1;jettySize=auto;html=1;entryX=0.128;entryY=-0.071;entryDx=0;entryDy=0;entryPerimeter=0;fontFamily=Times New Roman;" edge="1" parent="1" source="QTaHCRTgpDroU6HZKVSe-21" target="QTaHCRTgpDroU6HZKVSe-50">
          <mxGeometry relative="1" as="geometry">
            <mxPoint x="580" y="100" as="targetPoint" />
            <Array as="points">
              <mxPoint x="180" y="110" />
              <mxPoint x="551" y="110" />
            </Array>
          </mxGeometry>
        </mxCell>
        <mxCell id="QTaHCRTgpDroU6HZKVSe-58" value="" style="swimlane;startSize=0;fontFamily=Times New Roman;" vertex="1" parent="1">
          <mxGeometry x="545" y="253" width="40" height="40" as="geometry" />
        </mxCell>
        <mxCell id="QTaHCRTgpDroU6HZKVSe-59" value="&lt;font style=&quot;font-size: 15px;&quot;&gt;B&lt;/font&gt;" style="text;html=1;align=center;verticalAlign=middle;resizable=0;points=[];autosize=1;strokeColor=none;fillColor=none;fontFamily=Times New Roman;" vertex="1" parent="QTaHCRTgpDroU6HZKVSe-58">
          <mxGeometry x="5" y="5" width="30" height="30" as="geometry" />
        </mxCell>
        <mxCell id="QTaHCRTgpDroU6HZKVSe-60" value="" style="swimlane;startSize=0;fontFamily=Times New Roman;" vertex="1" parent="1">
          <mxGeometry x="615" y="253" width="40" height="40" as="geometry" />
        </mxCell>
        <mxCell id="QTaHCRTgpDroU6HZKVSe-61" value="&lt;font style=&quot;font-size: 15px;&quot;&gt;F&lt;/font&gt;" style="text;html=1;align=center;verticalAlign=middle;resizable=0;points=[];autosize=1;strokeColor=none;fillColor=none;fontFamily=Times New Roman;" vertex="1" parent="QTaHCRTgpDroU6HZKVSe-60">
          <mxGeometry x="5" y="5" width="30" height="30" as="geometry" />
        </mxCell>
        <mxCell id="QTaHCRTgpDroU6HZKVSe-62" value="" style="swimlane;startSize=0;fontFamily=Times New Roman;" vertex="1" parent="1">
          <mxGeometry x="695" y="253" width="40" height="40" as="geometry" />
        </mxCell>
        <mxCell id="QTaHCRTgpDroU6HZKVSe-63" value="&lt;font style=&quot;font-size: 15px;&quot;&gt;G&lt;/font&gt;" style="text;html=1;align=center;verticalAlign=middle;resizable=0;points=[];autosize=1;strokeColor=none;fillColor=none;fontFamily=Times New Roman;" vertex="1" parent="QTaHCRTgpDroU6HZKVSe-62">
          <mxGeometry x="5" y="5" width="30" height="30" as="geometry" />
        </mxCell>
        <mxCell id="QTaHCRTgpDroU6HZKVSe-70" style="edgeStyle=orthogonalEdgeStyle;rounded=0;orthogonalLoop=1;jettySize=auto;html=1;exitX=0.5;exitY=1;exitDx=0;exitDy=0;entryX=0.5;entryY=0;entryDx=0;entryDy=0;fontFamily=Times New Roman;" edge="1" parent="1" source="QTaHCRTgpDroU6HZKVSe-64" target="QTaHCRTgpDroU6HZKVSe-62">
          <mxGeometry relative="1" as="geometry" />
        </mxCell>
        <mxCell id="QTaHCRTgpDroU6HZKVSe-64" value="" style="swimlane;startSize=0;fontFamily=Times New Roman;" vertex="1" parent="1">
          <mxGeometry x="695" y="193" width="40" height="40" as="geometry" />
        </mxCell>
        <mxCell id="QTaHCRTgpDroU6HZKVSe-65" value="&lt;font style=&quot;font-size: 15px;&quot;&gt;H&lt;/font&gt;" style="text;html=1;align=center;verticalAlign=middle;resizable=0;points=[];autosize=1;strokeColor=none;fillColor=none;fontFamily=Times New Roman;" vertex="1" parent="QTaHCRTgpDroU6HZKVSe-64">
          <mxGeometry x="5" y="5" width="30" height="30" as="geometry" />
        </mxCell>
        <mxCell id="QTaHCRTgpDroU6HZKVSe-67" style="edgeStyle=orthogonalEdgeStyle;rounded=0;orthogonalLoop=1;jettySize=auto;html=1;entryX=0;entryY=0.5;entryDx=0;entryDy=0;fillColor=#0050ef;strokeColor=#001DBC;fontFamily=Times New Roman;" edge="1" parent="1" target="QTaHCRTgpDroU6HZKVSe-60">
          <mxGeometry relative="1" as="geometry">
            <mxPoint x="585" y="273" as="sourcePoint" />
          </mxGeometry>
        </mxCell>
        <mxCell id="QTaHCRTgpDroU6HZKVSe-71" value="" style="endArrow=classic;html=1;rounded=0;entryX=0;entryY=0.5;entryDx=0;entryDy=0;fillColor=#0050ef;strokeColor=#001DBC;fontFamily=Times New Roman;" edge="1" parent="1" target="QTaHCRTgpDroU6HZKVSe-64">
          <mxGeometry width="50" height="50" relative="1" as="geometry">
            <mxPoint x="655" y="271" as="sourcePoint" />
            <mxPoint x="705" y="221" as="targetPoint" />
          </mxGeometry>
        </mxCell>
        <mxCell id="QTaHCRTgpDroU6HZKVSe-73" style="edgeStyle=orthogonalEdgeStyle;rounded=0;orthogonalLoop=1;jettySize=auto;html=1;entryX=0;entryY=0.5;entryDx=0;entryDy=0;fillColor=#0050ef;strokeColor=#001DBC;exitX=1;exitY=0.5;exitDx=0;exitDy=0;" edge="1" parent="1" source="QTaHCRTgpDroU6HZKVSe-60" target="QTaHCRTgpDroU6HZKVSe-62">
          <mxGeometry relative="1" as="geometry">
            <mxPoint x="660" y="273" as="sourcePoint" />
          </mxGeometry>
        </mxCell>
      </root>
    </mxGraphModel>
  </diagram>
</mxfile>
